<?xml version="1.0" encoding="UTF-8"?>
<svg width="60px" height="60px" id="Layer_1" data-name="Layer 1" xmlns="http://www.w3.org/2000/svg" viewBox="0 0 109.5 114">
  <defs>
    <style>
      .cls-1 {
        fill: #87d0c8;
      }

      .cls-1, .cls-2, .cls-3, .cls-4, .cls-5, .cls-6, .cls-7, .cls-8, .cls-9, .cls-10, .cls-11, .cls-12, .cls-13, .cls-14, .cls-15, .cls-16, .cls-17, .cls-18, .cls-19, .cls-20, .cls-21 {
        stroke-width: 0px;
      }

      .cls-2 {
        fill: #7e8a96;
      }

      .cls-3 {
        fill: #727f8c;
      }

      .cls-4 {
        fill: #364a5b;
      }

      .cls-5 {
        fill: #3c4f60;
      }

      .cls-6 {
        fill: #60707e;
      }

      .cls-7 {
        fill: #536272;
      }

      .cls-8 {
        fill: #9cd7d1;
      }

      .cls-9 {
        fill: #3c5061;
      }

      .cls-10 {
        fill: #fff;
      }

      .cls-11 {
        fill: #304557;
      }

      .cls-12 {
        fill: #47bfac;
      }

      .cls-13 {
        fill: #80cec6;
      }

      .cls-14 {
        fill: #2f4457;
      }

      .cls-15 {
        fill: #42beaa;
      }

      .cls-16 {
        fill: #364a5c;
      }

      .cls-17 {
        fill: #fdfdfd;
      }

      .cls-18 {
        fill: #43beab;
      }

      .cls-19 {
        fill: #8ed2cc;
      }

      .cls-20 {
        fill: #48bfac;
      }

      .cls-21 {
        fill: #6e7c89;
      }
    </style>
  </defs>
  <path class="cls-10" d="M.05.05c35.81,0,71.61.02,107.41-.05,1.7,0,2.04.34,2.04,2.05-.06,36.64-.06,73.27,0,109.91,0,1.71-.33,2.05-2.04,2.05-35.14-.06-70.28-.06-105.43,0C.33,114,0,113.66,0,111.95.06,74.65.05,37.35.05.05Z"/>
  <path class="cls-11" d="M54.72,93.33c-8.83-.14-16.31-3.78-23.2-8.96-4.59-3.45-8.64-7.48-12.24-11.96-.96-1.2-1.21-2.3-.18-3.56,6.82-8.46,14.77-15.46,25.12-19.24,9.86-3.6,19.2-1.92,28.08,3.24,6.96,4.04,12.8,9.39,17.83,15.66.92,1.15,1.4,2.26.34,3.56-7.76,9.47-16.71,17.25-28.88,20.44-2.26.59-4.57.71-6.87.82Z"/>
  <path class="cls-14" d="M40.61,97.43c-6.76-3.06-12.98-6.91-18.68-11.62-.96-.79-1.9-1.61-2.83-2.43-.53-.47-.98-1.07-.45-1.72.59-.74,1.33-.45,1.97.06,1.99,1.62,3.92,3.33,5.98,4.86,7.21,5.35,15,9.34,24.06,10.51,8.13,1.06,15.57-1.06,22.74-4.58,5.39-2.64,10.19-6.17,14.73-10.07.78-.67,1.68-1.98,2.66-.78.98,1.2-.56,1.86-1.3,2.5-6.19,5.46-13.02,9.89-20.68,13.27,4.07,0,8.14,0,12.21,0,3.73,0,7.45,0,11.18,0,.77,0,1.65.02,1.69,1,.04,1-.83,1.07-1.61,1.08-.41,0-.83,0-1.24,0-24.18,0-48.37,0-72.55,0-.17,0-.33.02-.5,0-.91-.11-2.35.38-2.34-1.05,0-1.43,1.45-1.02,2.36-1.02,7.54-.03,15.07-.02,22.61-.02Z"/>
  <path class="cls-11" d="M54.16,41.4c12.25.17,22.01,5.13,31.06,11.93,1.65,1.25,3.21,2.62,4.8,3.96.69.58,1.62,1.2.68,2.21-.86.92-1.5,0-2.08-.51-3.95-3.44-8.15-6.53-12.68-9.16-15.62-9.1-30.78-7.76-45.6,1.96-3.27,2.14-6.34,4.53-9.3,7.08-.63.54-1.3,1.65-2.26.61-.93-1,.06-1.62.73-2.21,8.84-7.65,18.45-13.81,30.31-15.47,1.63-.23,3.29-.3,4.33-.39Z"/>
  <path class="cls-15" d="M57.21,104.9c1.4.82,2.9.29,4.31.44.76.08,1.59.04,1.64,1.08.05,1.06-.78,1.16-1.55,1.16-4.39.02-8.78.02-13.18,0-.76,0-1.6-.09-1.58-1.14.02-1.04.86-1.02,1.62-1.1,1.25-.14,2.59.38,3.93-.53-1.16-1.15-2.45-.6-3.59-.67-1.48-.1-2.98,0-4.47-.04-.86-.03-2.07.22-1.99-1.19.07-1.19,1.16-.96,1.95-.97,4.56-.02,9.11-.01,13.67-.01,2.49,0,4.97,0,7.46,0,.74,0,1.65-.08,1.72.96.08,1.23-.93,1.19-1.75,1.2-1.99.03-3.98-.03-5.97.04-.73.02-1.68-.42-2.23.76Z"/>
  <path class="cls-20" d="M37.79,104.2c-1.12-.46-3.24.71-3.24-1.1,0-2.04,2.17-1.04,3.37-1.1,1.06-.05,3.02-.75,3.02.97,0,2.01-2.06.77-3.15,1.24Z"/>
  <path class="cls-20" d="M72.02,101.93c.08,0,.17-.02.24,0,1,.23,2.74-.63,2.74,1.1,0,1.74-1.73.92-2.73,1.06-.8.12-1.63.02-2.45,0-.72-.01-1.35-.24-1.35-1.08,0-.84.63-1.07,1.35-1.08.74-.01,1.47,0,2.21,0h0Z"/>
  <path class="cls-7" d="M85.15,33.11c.98.21,1.63.73,1.52,1.85-.1,1.11-.81,1.58-1.85,1.51-1-.07-1.45-.79-1.43-1.69.02-1.06.65-1.65,1.76-1.67Z"/>
  <path class="cls-16" d="M12.4,99.53c-.8-.05-1.85.17-1.83-1.07.02-1.22,1.07-1.02,1.87-1.03.82-.01,1.87-.09,1.85,1.07-.02,1.16-1.08,1.01-1.89,1.04Z"/>
  <path class="cls-4" d="M97.22,99.53c-.81-.01-1.87.16-2-.92-.14-1.16.88-1.2,1.73-1.18.79.02,1.85-.26,1.98.91.14,1.22-.87,1.17-1.71,1.19Z"/>
  <path class="cls-1" d="M49.69,17.24c-1.02.26-1.44-.71-1.46-1.33-.02-.68.67-1.1,1.56-1.28,1.25-.26.57,1.14,1.27,1.19-.97-.02.18,1.89-1.37,1.42Z"/>
  <path class="cls-2" d="M15.65,27.54c.75.11,1.24.55,1.25,1.28.02.61-.36,1.11-1.01,1.21-.81.12-1.25-.42-1.36-1.1-.12-.78.46-1.15,1.11-1.39Z"/>
  <path class="cls-19" d="M72.96,19.57c1.15.03,1.26.93,1.35,1.49.08.47-.44.95-1.17.97-.93.02-1.28-.64-1.1-1.19.13-.4.06-1.47.92-1.26Z"/>
  <path class="cls-13" d="M98.73,20.44c-.06,1.73-.64,1.65-1.42,1.75-1.32.16-.28-1.32-1.11-1.35.56-.2.21-1.39,1.05-1.14.68.2,1.45.56,1.48.74Z"/>
  <path class="cls-21" d="M61.68,36.8c.11-.75.59-1.13,1.18-1.11.7.02,1.28.5,1.2,1.26-.08.74-.66,1.13-1.41.99-.61-.11-.97-.54-.96-1.14Z"/>
  <path class="cls-3" d="M20.62,48.27c-.72-.15-1.16-.52-1.13-1.17.04-.72.44-1.21,1.26-1.13.66.07,1.06.52,1.05,1.11-.01.73-.53,1.12-1.18,1.18Z"/>
  <path class="cls-6" d="M98.05,53.26c.01.65-.27,1.11-.93,1.2-.65.08-1.11-.23-1.19-.9-.08-.65.19-1.12.91-1.14.6-.02,1.14.09,1.21.85Z"/>
  <path class="cls-5" d="M8.23,97.46c.72.07.98.54.92,1.18-.06.54-.43.86-1,.84-.65-.03-1.11-.35-1.08-1.04.03-.68.51-.96,1.16-.97Z"/>
  <path class="cls-9" d="M101.39,99.48c-.76-.03-1.09-.44-1.04-1.11.04-.54.36-.9.94-.91.66,0,1.12.31,1.14.98.02.69-.45.98-1.04,1.03Z"/>
  <path class="cls-8" d="M35.95,32.18c.1-.47.42-.65.86-.61.45.04.77.32.71.76-.05.43-.4.66-.87.61-.46-.05-.72-.27-.7-.76Z"/>
  <path class="cls-17" d="M54.66,49.91c7.86.07,14.6,3.23,20.85,7.68,4.55,3.24,8.53,7.12,12.14,11.38.65.76,1.42,1.44.47,2.55-6.27,7.34-13.32,13.67-22.39,17.33-10.43,4.21-20.1,2.08-29.26-3.78-5.57-3.56-10.31-8.04-14.63-13.02-.9-1.04-1.14-1.79-.12-2.96,6.34-7.28,13.41-13.58,22.54-17.12,3.34-1.29,6.79-2.1,10.41-2.07Z"/>
  <path class="cls-18" d="M54.66,87.54c-9.59-.03-16.95-7.44-16.94-17.07.01-9.67,7.55-17.12,17.24-17.05,9.5.07,16.83,7.59,16.81,17.23-.02,9.55-7.49,16.92-17.12,16.88Z"/>
  <path class="cls-17" d="M54.69,85.4c-7.94-.05-14.72-6.91-14.72-14.89,0-8.16,6.72-14.81,14.97-14.82,7.93,0,14.58,6.82,14.59,14.95,0,7.92-6.92,14.81-14.84,14.76Z"/>
  <path class="cls-15" d="M59.83,70.37c0,2.43-1.46,4.47-3.47,5.03-2.5.7-4.96-.29-6.13-2.47-1.09-2.03-.72-2.91,1.51-3.55,1.34-.39,2.48-1.18,2.95-2.44.75-2,1.86-1.48,3.02-.64,1.41,1.02,2.23,2.41,2.13,4.07Z"/>
  <path class="cls-12" d="M65.67,71.24c-.03,4.91-5.25,10.16-10.11,10.18-.84,0-1.76.04-1.79-1.15-.02-.97.71-1.12,1.5-1.27,5.18-1,6.94-2.78,7.92-8.01.15-.82.34-1.47,1.26-1.53.79-.05,1.23.64,1.22,1.79Z"/>
</svg>